<svg width="300" height="72" viewBox="0 0 300 72" fill="none" xmlns="http://www.w3.org/2000/svg">
<rect width="300" height="72" rx="12" fill="white"/>
<g clip-path="url(#clip0_6527_512)">
<path d="M19 27H37C37.2652 27 37.5196 27.1054 37.7071 27.2929C37.8946 27.4804 38 27.7348 38 28V44C38 44.2652 37.8946 44.5196 37.7071 44.7071C37.5196 44.8946 37.2652 45 37 45H19C18.7348 45 18.4804 44.8946 18.2929 44.7071C18.1054 44.5196 18 44.2652 18 44V28C18 27.7348 18.1054 27.4804 18.2929 27.2929C18.4804 27.1054 18.7348 27 19 27ZM36 31.238L28.072 38.338L20 31.216V43H36V31.238ZM20.511 29L28.061 35.662L35.502 29H20.511Z" fill="#FFA800"/>
</g>
<path d="M63.588 19.214L60.452 25.192V29H59.472V25.192L56.308 19.214H57.414L59.962 24.296L62.496 19.214H63.588ZM68.3683 29.112C67.6497 29.112 67.001 28.9533 66.4223 28.636C65.853 28.3093 65.4003 27.852 65.0643 27.264C64.7377 26.6667 64.5743 25.9713 64.5743 25.178C64.5743 24.3847 64.7423 23.694 65.0783 23.106C65.4143 22.5087 65.8717 22.0513 66.4503 21.734C67.029 21.4073 67.6777 21.244 68.3963 21.244C69.115 21.244 69.7637 21.4073 70.3423 21.734C70.9303 22.0513 71.3877 22.5087 71.7143 23.106C72.0503 23.694 72.2183 24.3847 72.2183 25.178C72.2183 25.962 72.0503 26.6527 71.7143 27.25C71.3783 27.8473 70.9163 28.3093 70.3283 28.636C69.7403 28.9533 69.087 29.112 68.3683 29.112ZM68.3683 28.258C68.8723 28.258 69.339 28.146 69.7683 27.922C70.1977 27.6887 70.543 27.3433 70.8043 26.886C71.075 26.4193 71.2103 25.85 71.2103 25.178C71.2103 24.506 71.0797 23.9413 70.8183 23.484C70.557 23.0173 70.2117 22.672 69.7823 22.448C69.353 22.2147 68.8863 22.098 68.3823 22.098C67.8783 22.098 67.4117 22.2147 66.9823 22.448C66.553 22.672 66.2077 23.0173 65.9463 23.484C65.6943 23.9413 65.5683 24.506 65.5683 25.178C65.5683 25.85 65.6943 26.4193 65.9463 26.886C66.2077 27.3433 66.5483 27.6887 66.9683 27.922C67.3977 28.146 67.8643 28.258 68.3683 28.258ZM80.6268 21.356V29H79.6468V27.656C79.4228 28.132 79.0774 28.496 78.6108 28.748C78.1441 29 77.6214 29.126 77.0428 29.126C76.1281 29.126 75.3814 28.846 74.8028 28.286C74.2241 27.7167 73.9348 26.8953 73.9348 25.822V21.356H74.9008V25.71C74.9008 26.5407 75.1061 27.1753 75.5168 27.614C75.9368 28.0527 76.5061 28.272 77.2248 28.272C77.9621 28.272 78.5501 28.0387 78.9888 27.572C79.4274 27.1053 79.6468 26.4193 79.6468 25.514V21.356H80.6268ZM83.8441 22.714C84.0588 22.238 84.3855 21.8693 84.8241 21.608C85.2721 21.3467 85.8181 21.216 86.4621 21.216V22.238H86.1961C85.4868 22.238 84.9175 22.4293 84.4881 22.812C84.0588 23.1947 83.8441 23.834 83.8441 24.73V29H82.8641V21.356H83.8441V22.714ZM92.7582 20.012V23.666H96.4682V24.478H92.7582V28.188H96.8882V29H91.7782V19.2H96.8882V20.012H92.7582ZM107.919 21.216C108.815 21.216 109.543 21.5007 110.103 22.07C110.673 22.63 110.957 23.4467 110.957 24.52V29H109.991V24.632C109.991 23.8013 109.791 23.1667 109.389 22.728C108.988 22.2893 108.442 22.07 107.751 22.07C107.033 22.07 106.459 22.308 106.029 22.784C105.6 23.26 105.385 23.9507 105.385 24.856V29H104.419V24.632C104.419 23.8013 104.219 23.1667 103.817 22.728C103.416 22.2893 102.865 22.07 102.165 22.07C101.447 22.07 100.873 22.308 100.443 22.784C100.014 23.26 99.7992 23.9507 99.7992 24.856V29H98.8192V21.356H99.7992V22.672C100.042 22.196 100.387 21.8367 100.835 21.594C101.283 21.342 101.783 21.216 102.333 21.216C102.996 21.216 103.575 21.3747 104.069 21.692C104.573 22.0093 104.937 22.476 105.161 23.092C105.367 22.4853 105.717 22.0233 106.211 21.706C106.715 21.3793 107.285 21.216 107.919 21.216ZM112.686 25.164C112.686 24.38 112.84 23.694 113.148 23.106C113.465 22.5087 113.899 22.0513 114.45 21.734C115.01 21.4073 115.64 21.244 116.34 21.244C117.068 21.244 117.693 21.412 118.216 21.748C118.748 22.084 119.13 22.5133 119.364 23.036V21.356H120.344V29H119.364V27.306C119.121 27.8287 118.734 28.2627 118.202 28.608C117.679 28.944 117.054 29.112 116.326 29.112C115.635 29.112 115.01 28.9487 114.45 28.622C113.899 28.2953 113.465 27.8333 113.148 27.236C112.84 26.6387 112.686 25.948 112.686 25.164ZM119.364 25.178C119.364 24.562 119.238 24.0207 118.986 23.554C118.734 23.0873 118.388 22.728 117.95 22.476C117.52 22.224 117.044 22.098 116.522 22.098C115.98 22.098 115.495 22.2193 115.066 22.462C114.636 22.7047 114.296 23.0593 114.044 23.526C113.801 23.9833 113.68 24.5293 113.68 25.164C113.68 25.7893 113.801 26.34 114.044 26.816C114.296 27.2827 114.636 27.642 115.066 27.894C115.495 28.1367 115.98 28.258 116.522 28.258C117.044 28.258 117.52 28.132 117.95 27.88C118.388 27.628 118.734 27.2687 118.986 26.802C119.238 26.3353 119.364 25.794 119.364 25.178ZM123.071 19.914C122.875 19.914 122.707 19.844 122.567 19.704C122.427 19.564 122.357 19.3913 122.357 19.186C122.357 18.9807 122.427 18.8127 122.567 18.682C122.707 18.542 122.875 18.472 123.071 18.472C123.267 18.472 123.435 18.542 123.575 18.682C123.715 18.8127 123.785 18.9807 123.785 19.186C123.785 19.3913 123.715 19.564 123.575 19.704C123.435 19.844 123.267 19.914 123.071 19.914ZM123.561 21.356V29H122.581V21.356H123.561ZM126.76 18.64V29H125.78V18.64H126.76Z" fill="#5B5B5B"/>
<path d="M58.128 40.016C57.7973 40.016 57.52 39.904 57.296 39.68C57.072 39.456 56.96 39.1787 56.96 38.848C56.96 38.5173 57.072 38.24 57.296 38.016C57.52 37.792 57.7973 37.68 58.128 37.68C58.448 37.68 58.72 37.792 58.944 38.016C59.168 38.24 59.28 38.5173 59.28 38.848C59.28 39.1787 59.168 39.456 58.944 39.68C58.72 39.904 58.448 40.016 58.128 40.016ZM59.024 51.728C59.024 52.592 58.8053 53.216 58.368 53.6C57.9413 53.9947 57.3173 54.192 56.496 54.192H55.552V52.656H56.176C56.5493 52.656 56.8107 52.5813 56.96 52.432C57.12 52.2933 57.2 52.0587 57.2 51.728V41.184H59.024V51.728ZM65.2428 50.144C64.4108 50.144 63.6588 49.9573 62.9868 49.584C62.3148 49.2 61.7868 48.6667 61.4028 47.984C61.0188 47.2907 60.8268 46.4907 60.8268 45.584C60.8268 44.688 61.0241 43.8933 61.4188 43.2C61.8134 42.5067 62.3521 41.9733 63.0348 41.6C63.7174 41.2267 64.4801 41.04 65.3228 41.04C66.1654 41.04 66.9281 41.2267 67.6108 41.6C68.2934 41.9733 68.8321 42.5067 69.2268 43.2C69.6214 43.8933 69.8188 44.688 69.8188 45.584C69.8188 46.48 69.6161 47.2747 69.2108 47.968C68.8054 48.6613 68.2508 49.2 67.5468 49.584C66.8534 49.9573 66.0854 50.144 65.2428 50.144ZM65.2428 48.56C65.7121 48.56 66.1494 48.448 66.5548 48.224C66.9708 48 67.3068 47.664 67.5628 47.216C67.8188 46.768 67.9468 46.224 67.9468 45.584C67.9468 44.944 67.8241 44.4053 67.5788 43.968C67.3334 43.52 67.0081 43.184 66.6028 42.96C66.1974 42.736 65.7601 42.624 65.2908 42.624C64.8214 42.624 64.3841 42.736 63.9788 42.96C63.5841 43.184 63.2694 43.52 63.0348 43.968C62.8001 44.4053 62.6828 44.944 62.6828 45.584C62.6828 46.5333 62.9228 47.2693 63.4028 47.792C63.8934 48.304 64.5068 48.56 65.2428 48.56ZM76.1819 41.04C76.8539 41.04 77.4512 41.184 77.9739 41.472C78.5072 41.76 78.9232 42.1867 79.2219 42.752C79.5312 43.3173 79.6859 44 79.6859 44.8V50H77.8779V45.072C77.8779 44.2827 77.6805 43.68 77.2859 43.264C76.8912 42.8373 76.3525 42.624 75.6699 42.624C74.9872 42.624 74.4432 42.8373 74.0379 43.264C73.6432 43.68 73.4459 44.2827 73.4459 45.072V50H71.6219V38.16H73.4459V42.208C73.7552 41.8347 74.1445 41.5467 74.6139 41.344C75.0939 41.1413 75.6165 41.04 76.1819 41.04ZM86.4605 41.04C87.1538 41.04 87.7725 41.184 88.3165 41.472C88.8712 41.76 89.3032 42.1867 89.6125 42.752C89.9218 43.3173 90.0765 44 90.0765 44.8V50H88.2685V45.072C88.2685 44.2827 88.0712 43.68 87.6765 43.264C87.2818 42.8373 86.7432 42.624 86.0605 42.624C85.3778 42.624 84.8338 42.8373 84.4285 43.264C84.0338 43.68 83.8365 44.2827 83.8365 45.072V50H82.0125V41.184H83.8365V42.192C84.1352 41.8293 84.5138 41.5467 84.9725 41.344C85.4418 41.1413 85.9378 41.04 86.4605 41.04ZM91.7951 45.552C91.7951 44.6667 91.9765 43.8827 92.3391 43.2C92.7125 42.5173 93.2138 41.9893 93.8431 41.616C94.4831 41.232 95.1925 41.04 95.9711 41.04C96.5471 41.04 97.1125 41.168 97.6671 41.424C98.2325 41.6693 98.6805 42 99.0111 42.416V38.16H100.851V50H99.0111V48.672C98.7125 49.0987 98.2965 49.4507 97.7631 49.728C97.2405 50.0053 96.6378 50.144 95.9551 50.144C95.1871 50.144 94.4831 49.952 93.8431 49.568C93.2138 49.1733 92.7125 48.6293 92.3391 47.936C91.9765 47.232 91.7951 46.4373 91.7951 45.552ZM99.0111 45.584C99.0111 44.976 98.8831 44.448 98.6271 44C98.3818 43.552 98.0565 43.2107 97.6511 42.976C97.2458 42.7413 96.8085 42.624 96.3391 42.624C95.8698 42.624 95.4325 42.7413 95.0271 42.976C94.6218 43.2 94.2911 43.536 94.0351 43.984C93.7898 44.4213 93.6671 44.944 93.6671 45.552C93.6671 46.16 93.7898 46.6933 94.0351 47.152C94.2911 47.6107 94.6218 47.9627 95.0271 48.208C95.4431 48.4427 95.8805 48.56 96.3391 48.56C96.8085 48.56 97.2458 48.4427 97.6511 48.208C98.0565 47.9733 98.3818 47.632 98.6271 47.184C98.8831 46.7253 99.0111 46.192 99.0111 45.584ZM107.071 50.144C106.239 50.144 105.487 49.9573 104.815 49.584C104.143 49.2 103.615 48.6667 103.231 47.984C102.847 47.2907 102.655 46.4907 102.655 45.584C102.655 44.688 102.852 43.8933 103.247 43.2C103.642 42.5067 104.18 41.9733 104.863 41.6C105.546 41.2267 106.308 41.04 107.151 41.04C107.994 41.04 108.756 41.2267 109.439 41.6C110.122 41.9733 110.66 42.5067 111.055 43.2C111.45 43.8933 111.647 44.688 111.647 45.584C111.647 46.48 111.444 47.2747 111.039 47.968C110.634 48.6613 110.079 49.2 109.375 49.584C108.682 49.9573 107.914 50.144 107.071 50.144ZM107.071 48.56C107.54 48.56 107.978 48.448 108.383 48.224C108.799 48 109.135 47.664 109.391 47.216C109.647 46.768 109.775 46.224 109.775 45.584C109.775 44.944 109.652 44.4053 109.407 43.968C109.162 43.52 108.836 43.184 108.431 42.96C108.026 42.736 107.588 42.624 107.119 42.624C106.65 42.624 106.212 42.736 105.807 42.96C105.412 43.184 105.098 43.52 104.863 43.968C104.628 44.4053 104.511 44.944 104.511 45.584C104.511 46.5333 104.751 47.2693 105.231 47.792C105.722 48.304 106.335 48.56 107.071 48.56ZM121.53 45.376C121.53 45.7067 121.509 46.0053 121.466 46.272H114.73C114.783 46.976 115.045 47.5413 115.514 47.968C115.983 48.3947 116.559 48.608 117.242 48.608C118.223 48.608 118.917 48.1973 119.322 47.376H121.29C121.023 48.1867 120.538 48.8533 119.834 49.376C119.141 49.888 118.277 50.144 117.242 50.144C116.399 50.144 115.642 49.9573 114.97 49.584C114.309 49.2 113.786 48.6667 113.402 47.984C113.029 47.2907 112.842 46.4907 112.842 45.584C112.842 44.6773 113.023 43.8827 113.386 43.2C113.759 42.5067 114.277 41.9733 114.938 41.6C115.61 41.2267 116.378 41.04 117.242 41.04C118.074 41.04 118.815 41.2213 119.466 41.584C120.117 41.9467 120.623 42.4587 120.986 43.12C121.349 43.7707 121.53 44.5227 121.53 45.376ZM119.626 44.8C119.615 44.128 119.375 43.5893 118.906 43.184C118.437 42.7787 117.855 42.576 117.162 42.576C116.533 42.576 115.994 42.7787 115.546 43.184C115.098 43.5787 114.831 44.1173 114.746 44.8H119.626ZM131.533 39.664C132.749 39.664 133.8 39.888 134.685 40.336C135.57 40.784 136.242 41.4133 136.701 42.224C137.17 43.024 137.405 43.9573 137.405 45.024C137.405 45.8773 137.256 46.6933 136.957 47.472C136.669 48.2507 136.248 48.8853 135.693 49.376C135.149 49.8667 134.504 50.112 133.757 50.112C133.213 50.112 132.786 49.9947 132.477 49.76C132.168 49.5147 131.976 49.1733 131.901 48.736C131.57 49.1627 131.154 49.4987 130.653 49.744C130.152 49.9893 129.629 50.112 129.085 50.112C128.264 50.112 127.618 49.8667 127.149 49.376C126.69 48.8747 126.461 48.1973 126.461 47.344C126.461 46.5333 126.626 45.776 126.957 45.072C127.298 44.368 127.773 43.808 128.381 43.392C128.989 42.9653 129.672 42.752 130.429 42.752C131.357 42.752 132.008 43.0667 132.381 43.696L132.525 42.896H134.109L133.309 47.472C133.277 47.696 133.261 47.8933 133.261 48.064C133.261 48.3413 133.314 48.5493 133.421 48.688C133.538 48.8267 133.741 48.896 134.029 48.896C134.434 48.896 134.781 48.6987 135.069 48.304C135.357 47.8987 135.57 47.4027 135.709 46.816C135.858 46.2293 135.933 45.6587 135.933 45.104C135.933 43.7493 135.538 42.7147 134.749 42C133.96 41.2853 132.813 40.928 131.309 40.928C130.05 40.928 128.92 41.2267 127.917 41.824C126.925 42.4213 126.146 43.2427 125.581 44.288C125.016 45.3333 124.733 46.496 124.733 47.776C124.733 49.1413 125.138 50.1813 125.949 50.896C126.76 51.6107 127.917 51.968 129.421 51.968C130.434 51.968 131.32 51.7813 132.077 51.408L132.317 52.624C131.346 53.04 130.258 53.248 129.053 53.248C127.89 53.248 126.872 53.0293 125.997 52.592C125.122 52.1547 124.445 51.5307 123.965 50.72C123.485 49.92 123.245 48.9867 123.245 47.92C123.245 46.3947 123.597 45.0027 124.301 43.744C125.016 42.4853 126.002 41.4933 127.261 40.768C128.52 40.032 129.944 39.664 131.533 39.664ZM129.645 48.704C130.093 48.704 130.498 48.576 130.861 48.32C131.234 48.0533 131.528 47.7067 131.741 47.28C131.954 46.8427 132.061 46.3787 132.061 45.888C132.061 45.376 131.917 44.96 131.629 44.64C131.352 44.3093 130.957 44.144 130.445 44.144C129.986 44.144 129.581 44.288 129.229 44.576C128.888 44.8533 128.621 45.216 128.429 45.664C128.248 46.112 128.157 46.5813 128.157 47.072C128.157 47.5733 128.28 47.9733 128.525 48.272C128.77 48.56 129.144 48.704 129.645 48.704ZM143.283 41.04C143.966 41.04 144.569 41.1787 145.091 41.456C145.625 41.7227 146.041 42.0587 146.339 42.464V41.184H148.179V50.144C148.179 50.9547 148.009 51.6747 147.667 52.304C147.326 52.944 146.83 53.4453 146.179 53.808C145.539 54.1707 144.771 54.352 143.875 54.352C142.681 54.352 141.689 54.0693 140.899 53.504C140.11 52.9493 139.662 52.192 139.555 51.232H141.363C141.502 51.6907 141.795 52.0587 142.243 52.336C142.702 52.624 143.246 52.768 143.875 52.768C144.611 52.768 145.203 52.544 145.651 52.096C146.11 51.648 146.339 50.9973 146.339 50.144V48.672C146.03 49.088 145.609 49.44 145.075 49.728C144.553 50.0053 143.955 50.144 143.283 50.144C142.515 50.144 141.811 49.952 141.171 49.568C140.542 49.1733 140.041 48.6293 139.667 47.936C139.305 47.232 139.123 46.4373 139.123 45.552C139.123 44.6667 139.305 43.8827 139.667 43.2C140.041 42.5173 140.542 41.9893 141.171 41.616C141.811 41.232 142.515 41.04 143.283 41.04ZM146.339 45.584C146.339 44.976 146.211 44.448 145.955 44C145.71 43.552 145.385 43.2107 144.979 42.976C144.574 42.7413 144.137 42.624 143.667 42.624C143.198 42.624 142.761 42.7413 142.355 42.976C141.95 43.2 141.619 43.536 141.363 43.984C141.118 44.4213 140.995 44.944 140.995 45.552C140.995 46.16 141.118 46.6933 141.363 47.152C141.619 47.6107 141.95 47.9627 142.355 48.208C142.771 48.4427 143.209 48.56 143.667 48.56C144.137 48.56 144.574 48.4427 144.979 48.208C145.385 47.9733 145.71 47.632 145.955 47.184C146.211 46.7253 146.339 46.192 146.339 45.584ZM161.247 41.04C161.94 41.04 162.559 41.184 163.103 41.472C163.658 41.76 164.09 42.1867 164.399 42.752C164.719 43.3173 164.879 44 164.879 44.8V50H163.071V45.072C163.071 44.2827 162.874 43.68 162.479 43.264C162.084 42.8373 161.546 42.624 160.863 42.624C160.18 42.624 159.636 42.8373 159.231 43.264C158.836 43.68 158.639 44.2827 158.639 45.072V50H156.831V45.072C156.831 44.2827 156.634 43.68 156.239 43.264C155.844 42.8373 155.306 42.624 154.623 42.624C153.94 42.624 153.396 42.8373 152.991 43.264C152.596 43.68 152.399 44.2827 152.399 45.072V50H150.575V41.184H152.399V42.192C152.698 41.8293 153.076 41.5467 153.535 41.344C153.994 41.1413 154.484 41.04 155.007 41.04C155.711 41.04 156.34 41.1893 156.895 41.488C157.45 41.7867 157.876 42.2187 158.175 42.784C158.442 42.2507 158.858 41.8293 159.423 41.52C159.988 41.2 160.596 41.04 161.247 41.04ZM166.592 45.552C166.592 44.6667 166.773 43.8827 167.136 43.2C167.509 42.5173 168.011 41.9893 168.64 41.616C169.28 41.232 169.984 41.04 170.752 41.04C171.445 41.04 172.048 41.1787 172.56 41.456C173.083 41.7227 173.499 42.0587 173.808 42.464V41.184H175.648V50H173.808V48.688C173.499 49.104 173.077 49.4507 172.544 49.728C172.011 50.0053 171.403 50.144 170.72 50.144C169.963 50.144 169.269 49.952 168.64 49.568C168.011 49.1733 167.509 48.6293 167.136 47.936C166.773 47.232 166.592 46.4373 166.592 45.552ZM173.808 45.584C173.808 44.976 173.68 44.448 173.424 44C173.179 43.552 172.853 43.2107 172.448 42.976C172.043 42.7413 171.605 42.624 171.136 42.624C170.667 42.624 170.229 42.7413 169.824 42.976C169.419 43.2 169.088 43.536 168.832 43.984C168.587 44.4213 168.464 44.944 168.464 45.552C168.464 46.16 168.587 46.6933 168.832 47.152C169.088 47.6107 169.419 47.9627 169.824 48.208C170.24 48.4427 170.677 48.56 171.136 48.56C171.605 48.56 172.043 48.4427 172.448 48.208C172.853 47.9733 173.179 47.632 173.424 47.184C173.68 46.7253 173.808 46.192 173.808 45.584ZM178.972 40.016C178.641 40.016 178.364 39.904 178.14 39.68C177.916 39.456 177.804 39.1787 177.804 38.848C177.804 38.5173 177.916 38.24 178.14 38.016C178.364 37.792 178.641 37.68 178.972 37.68C179.292 37.68 179.564 37.792 179.788 38.016C180.012 38.24 180.124 38.5173 180.124 38.848C180.124 39.1787 180.012 39.456 179.788 39.68C179.564 39.904 179.292 40.016 178.972 40.016ZM179.868 41.184V50H178.044V41.184H179.868ZM184.087 38.16V50H182.263V38.16H184.087ZM187.217 50.112C186.887 50.112 186.609 50 186.385 49.776C186.161 49.552 186.049 49.2747 186.049 48.944C186.049 48.6133 186.161 48.336 186.385 48.112C186.609 47.888 186.887 47.776 187.217 47.776C187.537 47.776 187.809 47.888 188.033 48.112C188.257 48.336 188.369 48.6133 188.369 48.944C188.369 49.2747 188.257 49.552 188.033 49.776C187.809 50 187.537 50.112 187.217 50.112ZM189.733 45.584C189.733 44.6773 189.914 43.8827 190.277 43.2C190.65 42.5067 191.162 41.9733 191.813 41.6C192.463 41.2267 193.21 41.04 194.053 41.04C195.119 41.04 195.999 41.296 196.693 41.808C197.397 42.3093 197.871 43.0293 198.117 43.968H196.149C195.989 43.5307 195.733 43.1893 195.381 42.944C195.029 42.6987 194.586 42.576 194.053 42.576C193.306 42.576 192.709 42.8427 192.261 43.376C191.823 43.8987 191.605 44.6347 191.605 45.584C191.605 46.5333 191.823 47.2747 192.261 47.808C192.709 48.3413 193.306 48.608 194.053 48.608C195.109 48.608 195.807 48.144 196.149 47.216H198.117C197.861 48.112 197.381 48.8267 196.677 49.36C195.973 49.8827 195.098 50.144 194.053 50.144C193.21 50.144 192.463 49.9573 191.813 49.584C191.162 49.2 190.65 48.6667 190.277 47.984C189.914 47.2907 189.733 46.4907 189.733 45.584ZM203.758 50.144C202.926 50.144 202.174 49.9573 201.502 49.584C200.83 49.2 200.302 48.6667 199.918 47.984C199.534 47.2907 199.342 46.4907 199.342 45.584C199.342 44.688 199.54 43.8933 199.934 43.2C200.329 42.5067 200.868 41.9733 201.55 41.6C202.233 41.2267 202.996 41.04 203.838 41.04C204.681 41.04 205.444 41.2267 206.126 41.6C206.809 41.9733 207.348 42.5067 207.742 43.2C208.137 43.8933 208.334 44.688 208.334 45.584C208.334 46.48 208.132 47.2747 207.726 47.968C207.321 48.6613 206.766 49.2 206.062 49.584C205.369 49.9573 204.601 50.144 203.758 50.144ZM203.758 48.56C204.228 48.56 204.665 48.448 205.07 48.224C205.486 48 205.822 47.664 206.078 47.216C206.334 46.768 206.462 46.224 206.462 45.584C206.462 44.944 206.34 44.4053 206.094 43.968C205.849 43.52 205.524 43.184 205.118 42.96C204.713 42.736 204.276 42.624 203.806 42.624C203.337 42.624 202.9 42.736 202.494 42.96C202.1 43.184 201.785 43.52 201.55 43.968C201.316 44.4053 201.198 44.944 201.198 45.584C201.198 46.5333 201.438 47.2693 201.918 47.792C202.409 48.304 203.022 48.56 203.758 48.56ZM220.81 41.04C221.503 41.04 222.122 41.184 222.666 41.472C223.22 41.76 223.652 42.1867 223.962 42.752C224.282 43.3173 224.442 44 224.442 44.8V50H222.634V45.072C222.634 44.2827 222.436 43.68 222.042 43.264C221.647 42.8373 221.108 42.624 220.426 42.624C219.743 42.624 219.199 42.8373 218.794 43.264C218.399 43.68 218.202 44.2827 218.202 45.072V50H216.394V45.072C216.394 44.2827 216.196 43.68 215.802 43.264C215.407 42.8373 214.868 42.624 214.186 42.624C213.503 42.624 212.959 42.8373 212.554 43.264C212.159 43.68 211.962 44.2827 211.962 45.072V50H210.138V41.184H211.962V42.192C212.26 41.8293 212.639 41.5467 213.098 41.344C213.556 41.1413 214.047 41.04 214.57 41.04C215.274 41.04 215.903 41.1893 216.458 41.488C217.012 41.7867 217.439 42.2187 217.738 42.784C218.004 42.2507 218.42 41.8293 218.986 41.52C219.551 41.2 220.159 41.04 220.81 41.04Z" fill="#161414"/>
<defs>
<clipPath id="clip0_6527_512">
<rect width="24" height="24" fill="white" transform="translate(16 24)"/>
</clipPath>
</defs>
</svg>
