<svg width="160" height="33" viewBox="0 0 160 33" fill="none" xmlns="http://www.w3.org/2000/svg">
<path d="M16 3.08252C8.63599 3.08252 2.66666 9.05185 2.66666 16.4159C2.66666 23.0705 7.54266 28.5865 13.9173 29.5879V20.2692H10.5307V16.4159H13.9173V13.4785C13.9173 10.1372 15.9067 8.29185 18.9533 8.29185C20.412 8.29185 21.9373 8.55185 21.9373 8.55185V11.8319H20.2573C18.6 11.8319 18.084 12.8599 18.084 13.9145V16.4159H21.7813L21.1907 20.2692H18.084V29.5879C24.4573 28.5879 29.3333 23.0692 29.3333 16.4159C29.3333 9.05185 23.364 3.08252 16 3.08252Z" fill="#5243C2"/>
<g clip-path="url(#clip0_6527_475)">
<path d="M93.5493 7.95725C92.5314 8.40751 91.452 8.70322 90.3467 8.83458C91.5117 8.13783 92.3836 7.04127 92.8 5.74925C91.7067 6.39992 90.508 6.85592 89.2587 7.10258C88.4195 6.20469 87.3072 5.6092 86.0946 5.4087C84.8821 5.20819 83.6373 5.41391 82.5537 5.99386C81.4701 6.5738 80.6085 7.4955 80.1028 8.61564C79.5971 9.73579 79.4757 10.9916 79.7573 12.1879C77.5402 12.0768 75.3711 11.5006 73.3911 10.4968C71.411 9.49299 69.6642 8.08398 68.264 6.36125C67.7684 7.21252 67.5079 8.18022 67.5093 9.16525C67.5093 11.0986 68.4933 12.8066 69.9893 13.8066C69.104 13.7787 68.2382 13.5396 67.464 13.1093V13.1786C67.4643 14.4662 67.9098 15.7141 68.7251 16.7107C69.5404 17.7073 70.6753 18.3912 71.9373 18.6466C71.1155 18.8693 70.2538 18.9021 69.4173 18.7426C69.7732 19.8509 70.4667 20.8202 71.4008 21.5147C72.3349 22.2093 73.4628 22.5943 74.6267 22.6159C73.47 23.5244 72.1456 24.1959 70.7292 24.5921C69.3128 24.9884 67.8322 25.1016 66.372 24.9253C68.9209 26.5645 71.8881 27.4347 74.9187 27.4319C85.176 27.4319 90.7853 18.9346 90.7853 11.5653C90.7853 11.3253 90.7787 11.0826 90.768 10.8453C91.8598 10.0561 92.8021 9.07861 93.5507 7.95858L93.5493 7.95725Z" fill="#5243C2"/>
</g>
<g clip-path="url(#clip1_6527_475)">
<path d="M144 3.08252C147.623 3.08252 148.075 3.09585 149.496 3.16252C150.916 3.22919 151.883 3.45185 152.733 3.78252C153.613 4.12119 154.355 4.57985 155.096 5.31985C155.774 5.98638 156.299 6.79264 156.633 7.68252C156.963 8.53185 157.187 9.49985 157.253 10.9199C157.316 12.3412 157.333 12.7932 157.333 16.4159C157.333 20.0385 157.32 20.4905 157.253 21.9119C157.187 23.3319 156.963 24.2985 156.633 25.1492C156.3 26.0396 155.775 26.846 155.096 27.5119C154.429 28.1896 153.623 28.7142 152.733 29.0492C151.884 29.3785 150.916 29.6025 149.496 29.6692C148.075 29.7319 147.623 29.7492 144 29.7492C140.377 29.7492 139.925 29.7359 138.504 29.6692C137.084 29.6025 136.117 29.3785 135.267 29.0492C134.376 28.7152 133.57 28.1904 132.904 27.5119C132.226 26.8454 131.701 26.0391 131.367 25.1492C131.036 24.2999 130.813 23.3319 130.747 21.9119C130.684 20.4905 130.667 20.0385 130.667 16.4159C130.667 12.7932 130.68 12.3412 130.747 10.9199C130.813 9.49852 131.036 8.53319 131.367 7.68252C131.7 6.79209 132.225 5.98561 132.904 5.31985C133.57 4.64149 134.377 4.11683 135.267 3.78252C136.117 3.45185 137.083 3.22919 138.504 3.16252C139.925 3.09985 140.377 3.08252 144 3.08252ZM144 9.74919C142.232 9.74919 140.536 10.4516 139.286 11.7018C138.036 12.9521 137.333 14.6477 137.333 16.4159C137.333 18.184 138.036 19.8797 139.286 21.1299C140.536 22.3801 142.232 23.0825 144 23.0825C145.768 23.0825 147.464 22.3801 148.714 21.1299C149.964 19.8797 150.667 18.184 150.667 16.4159C150.667 14.6477 149.964 12.9521 148.714 11.7018C147.464 10.4516 145.768 9.74919 144 9.74919ZM152.667 9.41585C152.667 8.97383 152.491 8.5499 152.179 8.23734C151.866 7.92478 151.442 7.74919 151 7.74919C150.558 7.74919 150.134 7.92478 149.821 8.23734C149.509 8.5499 149.333 8.97383 149.333 9.41585C149.333 9.85788 149.509 10.2818 149.821 10.5944C150.134 10.9069 150.558 11.0825 151 11.0825C151.442 11.0825 151.866 10.9069 152.179 10.5944C152.491 10.2818 152.667 9.85788 152.667 9.41585ZM144 12.4159C145.061 12.4159 146.078 12.8373 146.828 13.5874C147.579 14.3376 148 15.355 148 16.4159C148 17.4767 147.579 18.4941 146.828 19.2443C146.078 19.9944 145.061 20.4159 144 20.4159C142.939 20.4159 141.922 19.9944 141.172 19.2443C140.421 18.4941 140 17.4767 140 16.4159C140 15.355 140.421 14.3376 141.172 13.5874C141.922 12.8373 142.939 12.4159 144 12.4159Z" fill="#5243C2"/>
</g>
<defs>
<clipPath id="clip0_6527_475">
<rect width="32" height="32" fill="white" transform="translate(64 0.416016)"/>
</clipPath>
<clipPath id="clip1_6527_475">
<rect width="32" height="32" fill="white" transform="translate(128 0.416016)"/>
</clipPath>
</defs>
</svg>
